HIERARCHY
ROOT Hips
{
  OFFSET 55.1244 86.0049 49.8995
  CHANNELS 6 Xposition Yposition Zposition Zrotation Xrotation Yrotation
  JOINT spine
  {
    OFFSET 0 6.3926 0.367606
    CHANNELS 3 Zrotation Xrotation Yrotation
    JOINT spine1
    {
      OFFSET 0 9.17611 0
      CHANNELS 3 Zrotation Xrotation Yrotation
      JOINT spine2
      {
        OFFSET 0 8.79238 0
        CHANNELS 3 Zrotation Xrotation Yrotation
        JOINT Neck
        {
          OFFSET 0 22.5737 1.07624
          CHANNELS 3 Zrotation Xrotation Yrotation
          JOINT Head
          {
            OFFSET 0 6.82011 0
            CHANNELS 3 Zrotation Xrotation Yrotation
            End Site
            {
              OFFSET 0 16.5085 -5.44427
            }
          }
        }
        JOINT RightShoulder
        {
          OFFSET -3.70221 9.49509 -0.515508
          CHANNELS 3 Zrotation Xrotation Yrotation
          JOINT RightArm
          {
            OFFSET 0 12.4537 0
            CHANNELS 3 Zrotation Xrotation Yrotation
            JOINT RightArmRoll
            {
              OFFSET 0 6.28686 0
              CHANNELS 3 Zrotation Xrotation Yrotation
              JOINT RightForeArm
              {
                OFFSET 0 18.3114 0
                CHANNELS 3 Zrotation Xrotation Yrotation
                JOINT RightForeArmRoll
                {
                  OFFSET 0 7.05483 0
                  CHANNELS 3 Zrotation Xrotation Yrotation
                  JOINT RightHand
                  {
                    OFFSET 0 14.1575 0
                    CHANNELS 3 Zrotation Xrotation Yrotation
                    End Site
                    {
                      OFFSET 0 0 0
                    }
                  }
                }
              }
            }
          }
        }
        JOINT LeftShoulder
        {
          OFFSET 3.70221 9.49509 -0.515508
          CHANNELS 3 Zrotation Xrotation Yrotation
          JOINT LeftArm
          {
            OFFSET 0 12.4537 0
            CHANNELS 3 Zrotation Xrotation Yrotation
            JOINT LeftArmRoll
            {
              OFFSET 0 6.28686 0
              CHANNELS 3 Zrotation Xrotation Yrotation
              JOINT LeftForeArm
              {
                OFFSET 0 18.3114 0
                CHANNELS 3 Zrotation Xrotation Yrotation
                JOINT LeftForeArmRoll
                {
                  OFFSET 0 7.05483 0
                  CHANNELS 3 Zrotation Xrotation Yrotation
                  JOINT LeftHand
                  {
                    OFFSET 0 14.1575 0
                    CHANNELS 3 Zrotation Xrotation Yrotation
                    End Site
                    {
                      OFFSET 0 0 0
                    }
                  }
                }
              }
            }
          }
        }
      }
    }
  }
  JOINT RightUpLeg
  {
    OFFSET -5.66615 -1.03903 -0.87161
    CHANNELS 3 Zrotation Xrotation Yrotation
    JOINT RightUpLegRoll
    {
      OFFSET 0 16.6005 0
      CHANNELS 3 Zrotation Xrotation Yrotation
      JOINT RightLeg
      {
        OFFSET 0 -20.5572 0
        CHANNELS 3 Zrotation Xrotation Yrotation
        JOINT RightLegRoll
        {
          OFFSET 0 20.6244 0
          CHANNELS 3 Zrotation Xrotation Yrotation
          JOINT RightFoot
          {
            OFFSET 0 17.1664 0
            CHANNELS 3 Zrotation Xrotation Yrotation
            JOINT RightToeBase
            {
              OFFSET 0 14.3502 0
              CHANNELS 3 Zrotation Xrotation Yrotation
              End Site
              {
                OFFSET 0.00608252 6.94971 -0.801061
              }
            }
          }
        }
      }
    }
  }
  JOINT LeftUpLeg
  {
    OFFSET 5.66615 -1.03903 -0.87161
    CHANNELS 3 Zrotation Xrotation Yrotation
    JOINT LeftUpLegRoll
    {
      OFFSET 0 16.6006 0
      CHANNELS 3 Zrotation Xrotation Yrotation
      JOINT LeftLeg
      {
        OFFSET 0 20.5571 0
        CHANNELS 3 Zrotation Xrotation Yrotation
        JOINT LeftLegRoll
        {
          OFFSET 0 20.8151 0
          CHANNELS 3 Zrotation Xrotation Yrotation
          JOINT LeftFoot
          {
            OFFSET 0 16.9757 0
            CHANNELS 3 Zrotation Xrotation Yrotation
            JOINT LeftToeBase
            {
              OFFSET 0 14.3502 0
              CHANNELS 3 Zrotation Xrotation Yrotation
              End Site
              {
                OFFSET -0.0272592 6.9497 -0.801061
              }
            }
          }
        }
      }
    }
  }
}
MOTION
Frames: 12
Frame Time: 0.00208333
52.2305 56.6308 9.8302 0.27212 -5.26428 6.31863 -0.577411 -2.87668 0.519244 -1.13665 -1.75354 1.07901 -1.14952 -0.10878 1.09786 23.4029 36.8466 -13.4967 -14.9836 -17.9126 -5.07847 81.6236 -7.86926 -5.51493 89.8477 14.9546 -22.6971 7.22457e-007 1.80845e-007 -5.14137e-006 22.4795 58.1151 -12.3903 1.35031e-005 3.98203e-006 -2.99999 8.02886 -4.95138 0.697589 -76.5759 16.9447 -5.0695 -86.475 8.23397 9.0748 -3.98914e-006 -1.18748e-007 4.78623e-006 -24.265 52.2045 15.1503 1.55717e-006 1.95202e-005 2.99998 -8.02888 -4.95084 -0.697417 142.378 68.9809 40.5349 180 -1.52569e-005 179.099 169.728 73.246 -174.744 -3.15761e-006 -4.01226e-006 1.12465 -17.2872 66.1044 18.0796 8.12811 25.2402 -3.47478 -160.429 73.5564 -18.8878 4.5067e-006 -1.99009e-005 -1.1047 4.11874 -74.0657 4.74639 -4.13338e-007 -2.09623e-006 -1.38784 15.8669 62.9704 -16.091 -8.12701 25.2356 3.48042 
52.23 56.6253 9.84013 0.273992 -5.26833 6.31631 -0.577285 -2.87591 0.518292 -1.13561 -1.75219 1.07754 -1.14853 -0.107422 1.09637 23.3929 36.8508 -13.4899 -14.9791 -17.9059 -5.07412 81.6275 -7.85275 -5.50876 89.8377 14.9534 -22.6888 7.22457e-007 1.80845e-007 -5.14137e-006 22.4811 58.1111 -12.3912 1.35031e-005 3.98203e-006 -2.99999 8.02886 -4.95138 0.697589 -76.5781 16.9227 -5.05969 -86.478 8.24646 9.08145 -3.98914e-006 -1.18748e-007 4.78623e-006 -24.2678 52.1981 15.1493 1.55717e-006 1.95202e-005 2.99998 -8.02888 -4.95084 -0.697417 142.388 68.9788 40.5232 180 -1.52569e-005 179.099 169.732 73.2467 -174.747 -3.15761e-006 -4.01226e-006 1.12465 -17.2878 66.105 18.0821 8.12811 25.2402 -3.47478 -160.426 73.5504 -18.8925 4.5067e-006 -1.99009e-005 -1.1047 4.11495 -74.0671 4.74385 -4.13338e-007 -2.09623e-006 -1.38784 15.8668 62.9703 -16.091 -8.12701 25.2356 3.48042 
52.2337 56.624 9.84079 0.275804 -5.27204 6.31424 -0.577169 -2.87527 0.517433 -1.13456 -1.75108 1.07628 -1.14754 -0.106315 1.09509 23.3856 36.8551 -13.4846 -14.9766 -17.8995 -5.07043 81.6316 -7.83703 -5.50292 89.8274 14.952 -22.6807 7.22457e-007 1.80845e-007 -5.14137e-006 22.4829 58.1073 -12.3922 1.35031e-005 3.98203e-006 -2.99999 8.02886 -4.95138 0.697589 -76.5804 16.9022 -5.05049 -86.4809 8.25829 9.08745 -3.98914e-006 -1.18748e-007 4.78623e-006 -24.2705 52.1914 15.1482 1.55717e-006 1.95202e-005 2.99998 -8.02888 -4.95084 -0.697417 142.398 68.9768 40.5128 180 -1.52569e-005 179.099 169.735 73.2476 -174.749 -3.15761e-006 -4.01226e-006 1.12465 -17.2885 66.1057 18.0848 8.12811 25.2402 -3.47478 -160.423 73.5449 -18.8967 4.5067e-006 -1.99009e-005 -1.1047 4.11131 -74.0685 4.74142 -4.13338e-007 -2.09623e-006 -1.38784 15.8668 62.97 -16.0909 -8.12701 25.2356 3.48042 
52.2317 56.6322 9.82719 0.277574 -5.27553 6.31235 -0.577059 -2.87471 0.516639 -1.13349 -1.75015 1.07515 -1.14654 -0.105384 1.09394 23.3802 36.8595 -13.4804 -14.9755 -17.8933 -5.06719 81.636 -7.82188 -5.49729 89.8169 14.9504 -22.6727 7.22457e-007 1.80845e-007 -5.14137e-006 22.4847 58.1036 -12.3933 1.35031e-005 3.98203e-006 -2.99999 8.02886 -4.95138 0.697589 -76.5827 16.8826 -5.04171 -86.4836 8.26966 9.093 -3.98914e-006 -1.18748e-007 4.78623e-006 -24.2731 52.1846 15.147 1.55717e-006 1.95202e-005 2.99998 -8.02888 -4.95084 -0.697417 142.406 68.9748 40.5031 180 -1.52569e-005 179.099 169.738 73.2485 -174.752 -3.15761e-006 -4.01226e-006 1.12465 -17.2893 66.1064 18.0876 8.12811 25.2402 -3.47478 -160.421 73.5397 -18.9005 4.5067e-006 -1.99009e-005 -1.1047 4.10777 -74.07 4.73904 -4.13338e-007 -2.09623e-006 -1.38784 15.8667 62.9698 -16.0908 -8.12701 25.2356 3.48042 
52.2326 56.6384 9.82225 0.27932 -5.2789 6.31055 -0.576954 -2.8742 0.515883 -1.13241 -1.74932 1.07411 -1.14553 -0.104553 1.09288 23.3758 36.864 -13.4768 -14.9752 -17.8872 -5.06421 81.6405 -7.80705 -5.49179 89.8063 14.9488 -22.6647 7.22457e-007 1.80845e-007 -5.14137e-006 22.4866 58.1 -12.3945 1.35031e-005 3.98203e-006 -2.99999 8.02886 -4.95138 0.697589 -76.5851 16.8637 -5.03318 -86.4862 8.28077 9.09829 -3.98914e-006 -1.18748e-007 4.78623e-006 -24.2757 52.1777 15.1458 1.55717e-006 1.95202e-005 2.99998 -8.02888 -4.95084 -0.697417 142.414 68.9728 40.494 180 -1.52569e-005 179.099 169.741 73.2495 -174.754 -3.15761e-006 -4.01226e-006 1.12465 -17.2901 66.1071 18.0905 8.12811 25.2402 -3.47478 -160.419 73.5347 -18.904 4.5067e-006 -1.99009e-005 -1.1047 4.10429 -74.0715 4.73671 -4.13338e-007 -2.09623e-006 -1.38784 15.8666 62.9695 -16.0906 -8.12701 25.2356 3.48042 
52.2286 56.6332 9.84057 0.28106 -5.28222 6.30879 -0.576849 -2.87371 0.515136 -1.13133 -1.74851 1.07308 -1.14452 -0.103748 1.09184 23.3717 36.8685 -13.4734 -14.9751 -17.8811 -5.06129 81.645 -7.79229 -5.48632 89.7957 14.947 -22.6568 7.22457e-007 1.80845e-007 -5.14137e-006 22.4885 58.0964 -12.3957 1.35031e-005 3.98203e-006 -2.99999 8.02886 -4.95138 0.697589 -76.5874 16.8449 -5.02471 -86.4888 8.29181 9.10352 -3.98914e-006 -1.18748e-007 4.78623e-006 -24.2782 52.1707 15.1445 1.55717e-006 1.95202e-005 2.99998 -8.02888 -4.95084 -0.697417 142.421 68.9708 40.485 180 -1.52569e-005 179.099 169.743 73.2505 -174.756 -3.15761e-006 -4.01226e-006 1.12465 -17.291 66.1079 18.0934 8.12811 25.2402 -3.47478 -160.417 73.5297 -18.9075 4.5067e-006 -1.99009e-005 -1.1047 4.10082 -74.073 4.73438 -4.13338e-007 -2.09623e-006 -1.38784 15.8665 62.9692 -16.0905 -8.12701 25.2356 3.48042 
52.2284 56.629 9.84123 0.282811 -5.28562 6.30697 -0.576742 -2.87319 0.51437 -1.13026 -1.74766 1.07202 -1.14351 -0.102892 1.09075 23.3671 36.8729 -13.4697 -14.9746 -17.875 -5.05824 81.6495 -7.77738 -5.48079 89.7851 14.9454 -22.6488 7.22457e-007 1.80845e-007 -5.14137e-006 22.4903 58.0928 -12.3968 1.35031e-005 3.98203e-006 -2.99999 8.02886 -4.95138 0.697589 -76.5897 16.8258 -5.01612 -86.4914 8.30298 9.10888 -3.98914e-006 -1.18748e-007 4.78623e-006 -24.2808 52.1638 15.1433 1.55717e-006 1.95202e-005 2.99998 -8.02888 -4.95084 -0.697417 142.429 68.9688 40.4757 180 -1.52569e-005 179.099 169.746 73.2514 -174.758 -3.15761e-006 -4.01226e-006 1.12465 -17.2918 66.1086 18.0963 8.12811 25.2402 -3.47478 -160.415 73.5247 -18.9111 4.5067e-006 -1.99009e-005 -1.1047 4.09732 -74.0744 4.73204 -4.13338e-007 -2.09623e-006 -1.38784 15.8664 62.9689 -16.0904 -8.12701 25.2356 3.48042 
52.2299 56.631 9.8329 0.284592 -5.28917 6.30503 -0.57663 -2.87261 0.513557 -1.1292 -1.74668 1.07086 -1.14251 -0.101911 1.08957 23.3611 36.8773 -13.4652 -14.9731 -17.8687 -5.05487 81.6538 -7.76207 -5.4751 89.7746 14.9439 -22.6408 7.22457e-007 1.80845e-007 -5.14137e-006 22.4922 58.0891 -12.3979 1.35031e-005 3.98203e-006 -2.99999 8.02886 -4.95138 0.697589 -76.592 16.806 -5.00723 -86.4942 8.31448 9.11456 -3.98914e-006 -1.18748e-007 4.78623e-006 -24.2835 52.157 15.1422 1.55717e-006 1.95202e-005 2.99998 -8.02888 -4.95084 -0.697417 142.438 68.9668 40.4658 180 -1.52569e-005 179.099 169.749 73.2523 -174.761 -3.15761e-006 -4.01226e-006 1.12465 -17.2925 66.1093 18.099 8.12811 25.2402 -3.47478 -160.413 73.5194 -18.915 4.5067e-006 -1.99009e-005 -1.1047 4.09375 -74.0759 4.72965 -4.13338e-007 -2.09623e-006 -1.38784 15.8663 62.9687 -16.0903 -8.12701 25.2356 3.48042 
52.2263 56.6349 9.83133 0.28642 -5.29299 6.30288 -0.576511 -2.87193 0.512671 -1.12815 -1.7455 1.06953 -1.14152 -0.100728 1.08822 23.353 36.8816 -13.4594 -14.97 -17.8622 -5.05099 81.6578 -7.74611 -5.46916 89.7644 14.9425 -22.6326 7.22457e-007 1.80845e-007 -5.14137e-006 22.4938 58.0852 -12.3989 1.35031e-005 3.98203e-006 -2.99999 8.02886 -4.95138 0.697589 -76.5942 16.785 -4.99786 -86.4971 8.3265 9.12076 -3.98914e-006 -1.18748e-007 4.78623e-006 -24.2862 52.1505 15.1411 1.55717e-006 1.95202e-005 2.99998 -8.02888 -4.95084 -0.697417 142.447 68.9648 40.455 180 -1.52569e-005 179.099 169.752 73.2531 -174.763 -3.15761e-006 -4.01226e-006 1.12465 -17.2932 66.1099 18.1017 8.12811 25.2402 -3.47478 -160.41 73.5137 -18.9193 4.5067e-006 -1.99009e-005 -1.1047 4.09006 -74.0773 4.72718 -4.13338e-007 -2.09623e-006 -1.38784 15.8663 62.9685 -16.0902 -8.12701 25.2356 3.48042 
52.2276 56.6272 9.84868 0.288314 -5.29716 6.30046 -0.576381 -2.87111 0.511681 -1.12712 -1.74404 1.06798 -1.14055 -0.0992699 1.08665 23.3419 36.8858 -13.4519 -14.9648 -17.8554 -5.04639 81.6615 -7.72927 -5.46288 89.7546 14.9414 -22.6243 7.22457e-007 1.80845e-007 -5.14137e-006 22.4954 58.0811 -12.3998 1.35031e-005 3.98203e-006 -2.99999 8.02886 -4.95138 0.697589 -76.5964 16.7624 -4.98783 -86.5003 8.33924 9.12767 -3.98914e-006 -1.18748e-007 4.78623e-006 -24.2891 52.1442 15.1402 1.55717e-006 1.95202e-005 2.99998 -8.02888 -4.95084 -0.697417 142.458 68.9627 40.4428 180 -1.52569e-005 179.099 169.756 73.2539 -174.766 -3.15761e-006 -4.01226e-006 1.12465 -17.2938 66.1104 18.1041 8.12811 25.2402 -3.47478 -160.407 73.5076 -18.9242 4.5067e-006 -1.99009e-005 -1.1047 4.08622 -74.0787 4.7246 -4.13338e-007 -2.09623e-006 -1.38784 15.8662 62.9684 -16.0901 -8.12701 25.2356 3.48042 
52.221 56.6316 9.84016 0.29029 -5.30179 6.29768 -0.576238 -2.87013 0.510561 -1.12612 -1.74223 1.06615 -1.13959 -0.0974599 1.0848 23.3272 36.8897 -13.4422 -14.9568 -17.8482 -5.04088 81.6648 -7.71131 -5.45615 89.7451 14.9407 -22.6158 7.22457e-007 1.80845e-007 -5.14137e-006 22.4968 58.0767 -12.4005 1.35031e-005 3.98203e-006 -2.99999 8.02886 -4.95138 0.697589 -76.5984 16.7377 -4.97696 -86.5038 8.3529 9.13549 -3.98914e-006 -1.18748e-007 4.78623e-006 -24.2922 52.1382 15.1396 1.55717e-006 1.95202e-005 2.99998 -8.02888 -4.95084 -0.697417 142.471 68.9605 40.429 180 -1.52569e-005 179.099 169.76 73.2545 -174.77 -3.15761e-006 -4.01226e-006 1.12465 -17.2943 66.1108 18.1063 8.12811 25.2402 -3.47478 -160.403 73.5008 -18.9299 4.5067e-006 -1.99009e-005 -1.1047 4.08217 -74.08 4.72188 -4.13338e-007 -2.09623e-006 -1.38784 15.8662 62.9683 -16.0901 -8.12701 25.2356 3.48042 
52.223 56.6334 9.83725 0.292367 -5.30697 6.29447 -0.576079 -2.86894 0.509282 -1.12516 -1.73999 1.06397 -1.13865 -0.0952231 1.08261 23.3078 36.8934 -13.4299 -14.9455 -17.8406 -5.03427 81.6676 -7.69198 -5.44889 89.7362 14.9404 -22.607 7.22457e-007 1.80845e-007 -5.14137e-006 22.4979 58.0719 -12.401 1.35031e-005 3.98203e-006 -2.99999 8.02886 -4.95138 0.697589 -76.6005 16.7105 -4.96506 -86.5076 8.36767 9.14441 -3.98914e-006 -1.18748e-007 4.78623e-006 -24.2955 52.1326 15.1392 1.55717e-006 1.95202e-005 2.99998 -8.02888 -4.95084 -0.697417 142.485 68.9582 40.4131 180 -1.52569e-005 179.099 169.765 73.2549 -174.774 -3.15761e-006 -4.01226e-006 1.12465 -17.2946 66.1111 18.1081 8.12811 25.2402 -3.47478 -160.398 73.4932 -18.9365 4.5067e-006 -1.99009e-005 -1.1047 4.07788 -74.0812 4.719 -4.13338e-007 -2.09623e-006 -1.38784 15.8662 62.9684 -16.0902 -8.12701 25.2356 3.48042 
